<svg xmlns="http://www.w3.org/2000/svg" viewBox="0 0 128 128" fill="none">
  <defs>
    <linearGradient id="g" x1="0" y1="0" x2="1" y2="1">
      <stop offset="0" stop-color="#f8fafc" stop-opacity="0.95"/>
      <stop offset="1" stop-color="#cbd5e1" stop-opacity="0.9"/>
    </linearGradient>
    <filter id="soft" x="-40%" y="-40%" width="180%" height="180%">
      <feGaussianBlur stdDeviation="2.6" result="b"/>
      <feMerge>
        <feMergeNode in="b"/>
        <feMergeNode in="SourceGraphic"/>
      </feMerge>
    </filter>
  </defs>
  <g filter="url(#soft)">
    <path d="M96 58H90V44c0-14.36-11.64-26-26-26S38 29.64 38 44v14h-6c-6.63 0-12 5.37-12 12v34c0 6.63 5.37 12 12 12h64c6.63 0 12-5.37 12-12V70c0-6.63-5.37-12-12-12ZM48 44c0-8.84 7.16-16 16-16s16 7.16 16 16v14H48V44Zm16 50c-6.08 0-11-4.92-11-11s4.92-11 11-11 11 4.92 11 11-4.92 11-11 11Z" fill="url(#g)" fill-opacity="0.92"/>
  </g>
</svg>
