<svg xmlns="http://www.w3.org/2000/svg" viewBox="0 0 384 180">
  <g opacity=".24">
    <ellipse cx="192" cy="142" rx="136" ry="22" fill="#000"/>
  </g>
  <g transform="translate(16 14)">
    <rect x="26" y="96" width="34" height="20" rx="7" fill="#111827"/>
    <rect x="292" y="96" width="34" height="20" rx="7" fill="#111827"/>
    <path d="M18 42h314l20 26v42H18z" fill="#a16207"/>
    <path d="M28 46h294l18 22v34H28z" fill="#facc15"/>
    <path d="M40 54h270v26H40z" fill="#dbeafe"/>
    <path d="M74 54v26M110 54v26M146 54v26M182 54v26M218 54v26M254 54v26" stroke="#64748b" stroke-width="4"/>
    <path d="M54 94h262" stroke="#92400e" stroke-width="6" opacity=".35"/>
    <rect x="148" y="92" width="56" height="20" rx="4" fill="#92400e" opacity=".34"/>
    <path d="M30 68h12v20H30zm280 0h12v20h-12z" fill="#f8fafc" opacity=".72"/>
    <path d="M54 112h244" stroke="#111827" stroke-width="6" stroke-linecap="round" opacity=".26"/>
  </g>
</svg>
