<svg xmlns="http://www.w3.org/2000/svg" viewBox="0 0 256 160">
  <g opacity=".24">
    <ellipse cx="128" cy="128" rx="78" ry="18" fill="#000"/>
  </g>
  <g transform="translate(18 12)">
    <rect x="34" y="108" width="28" height="18" rx="7" fill="#141821"/>
    <rect x="160" y="108" width="28" height="18" rx="7" fill="#141821"/>
    <path d="M34 64 72 30h74l40 34v42H34z" fill="#b91c1c"/>
    <path d="M46 70 80 40h60l34 30v28H46z" fill="#ef4444"/>
    <path d="M72 44h56l24 22H56z" fill="#cbd5e1"/>
    <path d="M94 44v22" stroke="#64748b" stroke-width="4"/>
    <path d="M127 44v22" stroke="#64748b" stroke-width="4"/>
    <path d="M58 74h104" stroke="#7f1d1d" stroke-width="5" opacity=".38"/>
    <path d="M28 78h14l6 10H28zM188 78h16v10l-6 10h-10z" fill="#f8fafc" opacity=".76"/>
    <rect x="42" y="58" width="8" height="40" rx="3" fill="#7f1d1d" opacity=".46"/>
    <rect x="170" y="58" width="8" height="40" rx="3" fill="#7f1d1d" opacity=".46"/>
    <path d="M66 112h90" stroke="#111827" stroke-width="5" stroke-linecap="round" opacity=".28"/>
  </g>
</svg>
