<svg xmlns="http://www.w3.org/2000/svg" viewBox="0 0 256 160">
  <g opacity=".2">
    <ellipse cx="128" cy="128" rx="80" ry="18" fill="#000"/>
  </g>
  <g transform="translate(18 12)">
    <rect x="34" y="108" width="28" height="18" rx="7" fill="#10151d"/>
    <rect x="160" y="108" width="28" height="18" rx="7" fill="#10151d"/>
    <path d="M34 64 74 28h72l42 36v42H34z" fill="#1e293b"/>
    <path d="M46 70 82 38h56l34 32v28H46z" fill="#3b82f6"/>
    <path d="M70 44h60l24 23H56z" fill="#dbeafe"/>
    <path d="M91 44v23M127 44v23" stroke="#64748b" stroke-width="4"/>
    <path d="m60 100 26-14m22 4 20-12m-60 28 16-10m42 2 16-9" stroke="#e2e8f0" stroke-width="3" opacity=".44"/>
    <path d="M42 76h130" stroke="#0f172a" stroke-width="5" opacity=".32"/>
    <path d="M54 58h8v42h-8zm112 0h8v42h-8z" fill="#0f172a" opacity=".24"/>
  </g>
</svg>
