<svg xmlns="http://www.w3.org/2000/svg" viewBox="0 0 520 260">
  <g opacity=".18">
    <ellipse cx="260" cy="214" rx="188" ry="28" fill="#000"/>
  </g>
  <g transform="translate(18 18)">
    <path d="M42 72h418v124H42z" fill="#94a3b8"/>
    <path d="M58 78h386v112H58z" fill="#e2e8f0"/>
    <path d="M92 34h318l34 38H58z" fill="#cbd5e1"/>
    <path d="M110 42h282l26 28H84z" fill="#f8fafc"/>
    <path d="M86 104h332v60H86z" fill="#dbeafe"/>
    <path d="M124 104v60M166 104v60M208 104v60M250 104v60M292 104v60M334 104v60" stroke="#94a3b8" stroke-width="5"/>
    <path d="M64 168h376" stroke="#dc2626" stroke-width="12"/>
    <path d="M222 78h22V56h20v22h22v20h-22v22h-20V98h-22z" fill="#dc2626"/>
    <path d="M90 198h320" stroke="#334155" stroke-width="8" stroke-linecap="round" opacity=".26"/>
  </g>
</svg>
